<svg id="visual" viewBox="0 0 1000 600" width="1000" height="600" xmlns="http://www.w3.org/2000/svg" xmlns:xlink="http://www.w3.org/1999/xlink" version="1.1"><g transform="translate(575.9416940264631 261.4281060071902)"><path d="M43.1 -128.1C51.2 -70 50 -49.1 91.2 -33.9C132.5 -18.8 216.2 -9.4 230.5 8.2C244.7 25.8 189.5 51.7 146.6 63.9C103.7 76.2 73.1 74.9 50.7 130.5C28.3 186.1 14.2 298.5 -22.2 337.1C-58.7 375.6 -117.3 340.2 -182.3 309.2C-247.2 278.2 -318.5 251.6 -355 200.8C-391.5 150 -393.2 75 -366.2 15.6C-339.3 -43.8 -283.5 -87.7 -223.5 -97.8C-163.5 -107.9 -99.3 -84.2 -61.3 -125.2C-23.3 -166.1 -11.7 -271.5 2.9 -276.6C17.5 -281.6 35 -186.3 43.1 -128.1" fill="#FFFFFF"></path></g></svg>